<?xml version="1.0"?>
<svg xmlns:rdf="http://www.w3.org/1999/02/22-rdf-syntax-ns#" xmlns="http://www.w3.org/2000/svg" xmlns:cc="http://creativecommons.org/ns#" xmlns:xlink="http://www.w3.org/1999/xlink" xmlns:dc="http://purl.org/dc/elements/1.1/" xmlns:svg="http://www.w3.org/2000/svg" id="svg2706" viewBox="0 0 222.47 308.53" version="1.0">
  <g id="layer1" transform="translate(-267.19 -261.67)">
    <path id="path4346" d="m446.03 261.68c-0.37-0.02-0.72 0.01-1.03 0.03-1.88 0.12-2.76 0.91-3.72 2.97-0.86 1.85-2.87 4.87-4.47 6.66-9.19 10.29-14.41 17.33-15.94 21.62-0.97 2.75-3.47 6.02-5.75 7.56-2.21 1.5-5.75 3.87-7.93 5.32-2.45 1.62-5.98 2.51-9.19 2.31-4.38-0.28-6.25 0.57-11.88 5.4-3.67 3.16-9.75 7.31-13.43 9.22-7.02 3.64-16.72 12.87-17.03 16.22-0.1 1.08-1.97 3.54-4.16 5.44s-5.8 6.72-8.03 10.72c-2.23 3.99-5.06 7.47-6.31 7.75-2.76 0.62-8.85 10.71-9.29 15.4-0.49 5.37-4.06 10.02-10.03 13.04-9.52 4.81-11.86 6.76-15.31 12.59-4.47 7.55-3.31 11.68 4.13 14.66 2.89 1.15 6.5 2.76 8.03 3.59s4.4 1.7 6.37 1.91c4.8 0.5 5.42 3.69 1.94 10.15h0.28c-1.33 1.3-2.68 2.64-4.03 4.03-1.59 9.43-4.95 21.57-7.5 26.94-5.62 11.84-9.59 25.78-8.41 29.59 0.48 1.55-0.3 4.02-1.72 5.5-1.76 1.87-1.71 2.92 0.07 3.38 2.9 0.75 0.36 7.38-3.25 8.5-1.13 0.35-1.67 1.88-1.19 3.44 0.48 1.55-1.06 4.02-3.44 5.47-2.8 1.7-4.37 4.94-4.47 9.25-0.13 5.87-9.07 23.67-22.15 38.93 72.48 0.19 154.62 1.42 208.78 0.72-0.94-3.02 1.04-17.38 1.9-18.37 0.87-0.99 0.82-2.46-0.09-3.25-0.91-0.8-0.47-2.37 0.97-3.5 1.76-1.39 1.85-3.4 0.19-6.13-1.7-2.79-1.62-4.91 0.31-6.94 2.2-2.31 2-5.82-0.97-16.53-2.41-8.71-3.15-15.46-2.06-18.84 0.93-2.9 1.32-8.24 0.9-11.84-0.41-3.61 0.14-7.96 1.22-9.63 1.09-1.67 1.37-5.07 0.6-7.56-0.78-2.5-0.55-4.8 0.5-5.13 1.05-0.32 1.52-1.86 1.03-3.43-0.49-1.58 0.15-3.18 1.4-3.57 1.79-0.55 1.59-1.08-0.75-2.31-3.53-1.86-4.93-5.1-1.87-4.31 3.26 0.84 3.74-4.05 0.59-6.1-0.73-0.47-1.48-1.38-2.06-2.43h0.06l-0.12-7.75-1-13.85c-4.24-2.38-5.05-7.38-2.75-11.03 1.42-2.26 1.27-3.42-0.66-6.84-3.21-5.72-4.3-18.19-1.97-22.47 1.35-2.47 1.51-4.52 0.75-8.63-1.55-8.44 2.5-19.67 13.19-36.5 1.17-1.84 2.87-6.99 3.72-11.4 1.75-9.05-0.02-15.03-4.56-15.5-3.53-0.37-12.57 3.58-14.32 6.25-2.33 3.56-3.11 1.23-5.03-15-1.66-14.09-3.58-20.62-7.28-24.81-2.12-2.41-4.36-5.74-5-7.38-0.84-2.16-2.38-3.07-5.56-3.41-0.45-0.04-0.84-0.1-1.22-0.12z"/>
  </g>
  <metadata>
    <rdf:RDF>
      <cc:Work>
        <dc:format>image/svg+xml</dc:format>
        <dc:type rdf:resource="http://purl.org/dc/dcmitype/StillImage"/>
        <cc:license rdf:resource="http://creativecommons.org/licenses/publicdomain/"/>
        <dc:publisher>
          <cc:Agent rdf:about="http://openclipart.org/">
            <dc:title>Openclipart</dc:title>
          </cc:Agent>
        </dc:publisher>
        <dc:title>Wolf Head Howl 3</dc:title>
        <dc:date>2008-12-23T15:30:54</dc:date>
        <dc:description>The head of a wolf howling</dc:description>
        <dc:source>http://openclipart.org/detail/20808/wolf-head-howl-3-by-choochus</dc:source>
        <dc:creator>
          <cc:Agent>
            <dc:title>choochus</dc:title>
          </cc:Agent>
        </dc:creator>
        <dc:subject>
          <rdf:Bag>
            <rdf:li>animal</rdf:li>
            <rdf:li>clip art</rdf:li>
            <rdf:li>clipart</rdf:li>
            <rdf:li>howl</rdf:li>
            <rdf:li>image</rdf:li>
            <rdf:li>media</rdf:li>
            <rdf:li>png</rdf:li>
            <rdf:li>public domain</rdf:li>
            <rdf:li>silhouette</rdf:li>
            <rdf:li>svg</rdf:li>
            <rdf:li>wolf</rdf:li>
          </rdf:Bag>
        </dc:subject>
      </cc:Work>
      <cc:License rdf:about="http://creativecommons.org/licenses/publicdomain/">
        <cc:permits rdf:resource="http://creativecommons.org/ns#Reproduction"/>
        <cc:permits rdf:resource="http://creativecommons.org/ns#Distribution"/>
        <cc:permits rdf:resource="http://creativecommons.org/ns#DerivativeWorks"/>
      </cc:License>
    </rdf:RDF>
  </metadata>
</svg>
